<svg xmlns="http://www.w3.org/2000/svg" width="347.749" height="124.807" viewBox="0 0 347.749 124.807">
  <path id="路径_113" data-name="路径 113" d="M45.911,71.454,23.432,86.3,14.038,70.112l32.8-20.969H70.151V171.266H45.911Zm127.994,32.628q11.323,5.368,16.691,13t5.368,18.453a34.679,34.679,0,0,1-20.633,32.586q-10.065,4.823-23.737,4.823t-23.485-4.529A34.133,34.133,0,0,1,113.221,156a32.146,32.146,0,0,1-5.074-17.782q0-10.652,5.662-18.2T130.625,107.6q-17.278-10.652-17.278-28.518a28.078,28.078,0,0,1,4.7-15.936,31.163,31.163,0,0,1,13.5-11.03,49.667,49.667,0,0,1,20.633-3.984,51.219,51.219,0,0,1,20.256,3.774,32.039,32.039,0,0,1,13.714,10.443,25.169,25.169,0,0,1,4.865,15.223,26.746,26.746,0,0,1-4.487,15.14A36.243,36.243,0,0,1,173.905,104.082Zm-21.724-38.5q-7.213,0-11.617,3.691a11.982,11.982,0,0,0-4.4,9.646A16.143,16.143,0,0,0,141.026,90.2q4.865,5.158,15.433,8.01,6.542-3.858,9.184-8.723a19.8,19.8,0,0,0,2.642-9.478q0-6.878-4.529-10.652A17.471,17.471,0,0,0,152.181,65.583Zm.168,89.915q10.065,0,15.307-4.991T172.9,137.38a17.9,17.9,0,0,0-6.375-13.839q-6.375-5.7-20.466-9.142a28.669,28.669,0,0,0-11.03,9.646,23.044,23.044,0,0,0-3.732,12.749,19.3,19.3,0,0,0,2.349,9.52,16.651,16.651,0,0,0,7.088,6.71A24.867,24.867,0,0,0,152.349,155.5Zm98.135,17.446q-21.137,0-31.663-15.727t-10.526-45.586q0-30.363,10.862-46.928t32.67-16.565q21.137,0,31.705,15.685T294.1,109.534q0,30.279-10.82,46.845T250.484,172.944Zm.335-18.117q9.73,0,14.217-11.323t4.487-33.886q0-21.137-4.152-32.334t-13.8-11.2q-9.73,0-14.217,11.659t-4.487,33.97q0,21.3,4.236,32.208T250.819,154.827Zm83.289-54.184a29.824,29.824,0,0,1-14.259-3.355,24.6,24.6,0,0,1-9.813-9.31,26.017,26.017,0,0,1-3.523-13.5,26.4,26.4,0,0,1,3.523-13.63,24.516,24.516,0,0,1,9.813-9.352,32.067,32.067,0,0,1,28.56,0,24.448,24.448,0,0,1,9.855,9.352,26.4,26.4,0,0,1,3.523,13.63,26.017,26.017,0,0,1-3.523,13.5,24.536,24.536,0,0,1-9.855,9.31A30.071,30.071,0,0,1,334.108,100.643Zm0-13a12.866,12.866,0,0,0,9.52-3.565q3.565-3.565,3.565-9.6,0-6.123-3.565-9.772a12.7,12.7,0,0,0-9.52-3.649q-6.039,0-9.562,3.649t-3.523,9.772q0,6.123,3.523,9.646T334.108,87.642Z" transform="translate(-14.038 -48.137)" fill="#1e2022"/>
</svg>
