<svg xmlns="http://www.w3.org/2000/svg" width="453" height="31.231" viewBox="0 0 453 31.231">
  <path id="路径_132" data-name="路径 132" d="M330.143,390.709H317V379.135h-5.821v28.689H317V396.173h13.143v11.651h5.82V379.135h-5.82Zm32.79,4.847c0,4.665-2.316,7.156-6.521,7.156-4.23,0-6.559-2.561-6.559-7.354V379.153h-5.82v16.4c0,8.069,4.484,12.7,12.3,12.7,7.892,0,12.419-4.715,12.419-12.935V379.135h-5.82Zm67.273,3.307-6.514-19.731h-4.75l-6.513,19.731-6.336-19.714h-6.2l10,28.677h4.821l6.524-18.838,6.522,18.838h4.861l9.973-28.677h-6.036Zm22.823-3.384h10.588v-5.226H453.03v-5.872H468.4v-5.226H447.287v28.651h21.664v-5.225H453.03Zm22.863-16.345v28.651h5.742V379.134Zm-82.505,22.7,2.576,5.972h6.1l-12.592-28.672h-5.129L371.7,407.808h5.941l2.613-5.972ZM386.809,386.4l4.415,10.268h-8.8Zm120.018,2.334q-.478-1.166-1.026-2.759t-.892-2.738q.076,1.107.134,3.124t.057,3.836V407.75h-3.318V379.119h4.757l7.308,17.954a52.039,52.039,0,0,1,2.263,6.446q.844-2.67,2.4-6.387l7.461-18.013h4.642V407.75h-3.568V390.192q0-2.432.268-6.96a63.041,63.041,0,0,1-2.205,6.071L517.4,407.79h-2.82Zm42.655,19.022a19.35,19.35,0,0,1-.316-2.946,9.764,9.764,0,0,1-3.095,2.373,9.193,9.193,0,0,1-4.221.969,7.451,7.451,0,0,1-3.3-.712,5.427,5.427,0,0,1-2.313-2.116,6.484,6.484,0,0,1-.85-3.421,6.08,6.08,0,0,1,2.214-4.914q2.215-1.849,7.356-1.849a31.911,31.911,0,0,1,4.093.277v-.534q0-3.282-1.325-4.607A5.028,5.028,0,0,0,544,388.946a12.792,12.792,0,0,0-3.292.455,17.456,17.456,0,0,0-3.035,1.088l-.633-2.788a16.478,16.478,0,0,1,3.214-1.078,17.819,17.819,0,0,1,4.28-.5,10.109,10.109,0,0,1,4.36.85,5.945,5.945,0,0,1,2.788,2.887,12.619,12.619,0,0,1,1,5.5v8.384q0,1.325.159,4.014Zm-3.214-3.332a8.2,8.2,0,0,0,2.779-2.125v-4.588a33.7,33.7,0,0,0-3.659-.217q-3.539,0-4.914,1.146a3.812,3.812,0,0,0-1.374,3.085,3.445,3.445,0,0,0,.979,2.709,3.826,3.826,0,0,0,2.64.87A7.9,7.9,0,0,0,546.268,404.419Zm14.057,2.185q-1.512-1.543-1.513-5.121V389.362H556l.494-2.472,2.432-.355.277-4.924,3.2-.514v5.438h6.328l-.494,2.828h-5.833v11.765a4.863,4.863,0,0,0,.791,3.085,3.006,3.006,0,0,0,2.472.969,9.765,9.765,0,0,0,3.045-.614l.632,2.551a11.058,11.058,0,0,1-2.1.732,10.578,10.578,0,0,1-2.571.3A5.835,5.835,0,0,1,560.325,406.6Zm28.046-9.333H574.194q.039,3.974,1.809,5.961a6.486,6.486,0,0,0,5.111,1.987,14.036,14.036,0,0,0,5.991-1.364l.85,2.61a15.668,15.668,0,0,1-3.391,1.246,17.773,17.773,0,0,1-4.162.435,10.645,10.645,0,0,1-5.408-1.285,8.175,8.175,0,0,1-3.361-3.707,13.608,13.608,0,0,1-1.137-5.824,14.1,14.1,0,0,1,1.187-6.031,8.8,8.8,0,0,1,3.312-3.856,9.06,9.06,0,0,1,4.894-1.324,7.965,7.965,0,0,1,4.755,1.364,8.073,8.073,0,0,1,2.818,3.589,12.647,12.647,0,0,1,.91,4.834Zm-3.658-2.571a7.275,7.275,0,0,0-1.493-4.4,4.391,4.391,0,0,0-3.47-1.473,4.707,4.707,0,0,0-3.569,1.493,7.842,7.842,0,0,0-1.829,4.38Zm23.4-1.156a6.859,6.859,0,0,1,2.339,2.521,7.439,7.439,0,0,1,.851,3.618,7.753,7.753,0,0,1-1.145,4.2,7.568,7.568,0,0,1-3.347,2.847,12.547,12.547,0,0,1-5.3,1.018h-8.457V379.119h7.85q4.326,0,6.548,1.73a5.739,5.739,0,0,1,2.222,4.795,6.506,6.506,0,0,1-1.361,4.182,7.411,7.411,0,0,1-3.631,2.442A8.9,8.9,0,0,1,608.11,393.544Zm-11.432-2.462h3.563a6.4,6.4,0,0,0,3.034-.692,5.014,5.014,0,0,0,2.017-1.868,4.93,4.93,0,0,0,.7-2.58,3.284,3.284,0,0,0-1.42-2.906,7.293,7.293,0,0,0-4.12-.969h-3.778Zm9.337,12.358a4.8,4.8,0,0,0,1.625-3.9,4.931,4.931,0,0,0-1.821-4.133,8.329,8.329,0,0,0-5.226-1.423h-3.915V404.8h4.4A7.54,7.54,0,0,0,606.015,403.44Zm12.849,3.431a8.843,8.843,0,0,1-3.455-3.707,12.55,12.55,0,0,1-1.253-5.814,13.282,13.282,0,0,1,1.253-5.942,9.274,9.274,0,0,1,3.494-3.915,9.664,9.664,0,0,1,5.158-1.374,9.563,9.563,0,0,1,5.07,1.345,9.066,9.066,0,0,1,3.445,3.846,13.057,13.057,0,0,1,1.234,5.843,12.7,12.7,0,0,1-1.282,5.9,9.061,9.061,0,0,1-3.534,3.787,10,10,0,0,1-5.109,1.3A9.833,9.833,0,0,1,618.864,406.871Zm9.719-3.707a9.831,9.831,0,0,0,1.468-5.754,10.653,10.653,0,0,0-1.556-6.11,5.185,5.185,0,0,0-4.571-2.274,5.109,5.109,0,0,0-4.532,2.2,10.345,10.345,0,0,0-1.5,5.9,11.739,11.739,0,0,0,.724,4.35,5.933,5.933,0,0,0,2.134,2.788,5.868,5.868,0,0,0,3.406.968A5.059,5.059,0,0,0,628.583,403.163Zm12.458,3.707a8.838,8.838,0,0,1-3.455-3.707,12.554,12.554,0,0,1-1.253-5.814,13.286,13.286,0,0,1,1.253-5.942,9.278,9.278,0,0,1,3.494-3.915,9.668,9.668,0,0,1,5.159-1.374,9.568,9.568,0,0,1,5.07,1.345,9.073,9.073,0,0,1,3.445,3.846,13.067,13.067,0,0,1,1.233,5.843,12.713,12.713,0,0,1-1.282,5.9,9.067,9.067,0,0,1-3.533,3.787,10,10,0,0,1-5.11,1.3A9.836,9.836,0,0,1,641.041,406.871Zm9.719-3.707a9.83,9.83,0,0,0,1.468-5.754,10.652,10.652,0,0,0-1.556-6.11,5.185,5.185,0,0,0-4.571-2.274,5.108,5.108,0,0,0-4.532,2.2,10.347,10.347,0,0,0-1.5,5.9,11.745,11.745,0,0,0,.724,4.35,5.935,5.935,0,0,0,2.133,2.788,5.869,5.869,0,0,0,3.407.968A5.06,5.06,0,0,0,650.761,403.163Zm9.316-25.745,3.6-.4v19.5l9.161-9.985h4.111l-8.261,8.838,9.064,12.378h-4.307l-7.184-10.064-2.584,2.234v7.83h-3.6Zm32.058,1.7H700.5a18.133,18.133,0,0,1,7.777,1.523,10.888,10.888,0,0,1,4.949,4.528,14.669,14.669,0,0,1,1.717,7.375,16.968,16.968,0,0,1-1.774,7.889,12.983,12.983,0,0,1-5.1,5.379,15.332,15.332,0,0,1-7.855,1.938h-8.075Zm7.768,25.567a11.916,11.916,0,0,0,6.214-1.512,9.43,9.43,0,0,0,3.789-4.212,14.688,14.688,0,0,0,1.256-6.258q0-5.239-2.771-7.88t-8.276-2.64h-4.373v22.5Zm33.16-21.372-5.231,3.518-1.425-2.629,6.843-4.542h3.3V407.8h-3.487Zm23.6,18.168H744.08v-2.648l12.617-19.27h3.45v18.922h4.031l-.469,3h-3.562v6.32H756.66Zm0-3V384.2l-9.318,14.283Z" transform="translate(-311.178 -377.023)" fill="#231815"/>
</svg>
