<svg width="514" height="128" viewBox="0 0 514 128" fill="none" xmlns="http://www.w3.org/2000/svg">
<path d="M41.9686 98.96C35.8246 98.96 30.4486 97.552 25.8406 94.736C21.2326 91.92 17.6806 87.92 15.1846 82.736C12.6886 77.488 11.4406 71.376 11.4406 64.4C11.4406 57.424 12.6886 51.344 15.1846 46.16C17.6806 40.912 21.2326 36.88 25.8406 34.064C30.4486 31.248 35.8246 29.84 41.9686 29.84C45.4886 29.84 48.7526 30.416 51.7606 31.568C54.8326 32.656 57.2646 33.936 59.0566 35.408C60.9126 36.816 61.8406 37.904 61.8406 38.672C61.8406 39.824 61.2006 40.4 59.9206 40.4C57.6166 37.968 54.8646 36.112 51.6646 34.832C48.5286 33.488 45.0406 32.816 41.2006 32.816C35.9526 32.816 31.3446 34.128 27.3766 36.752C23.4726 39.312 20.4646 42.96 18.3526 47.696C16.2406 52.432 15.1846 58 15.1846 64.4C15.1846 70.8 16.2406 76.368 18.3526 81.104C20.4646 85.84 23.4726 89.52 27.3766 92.144C31.3446 94.704 35.9526 95.984 41.2006 95.984C45.0406 95.984 48.5286 95.344 51.6646 94.064C54.8646 92.72 57.6166 90.832 59.9206 88.4C61.2006 88.4 61.8406 88.976 61.8406 90.128C61.8406 90.896 60.9126 92.016 59.0566 93.488C57.2646 94.896 54.8326 96.176 51.7606 97.328C48.7526 98.416 45.4886 98.96 41.9686 98.96ZM119.537 30.416C119.921 30.416 120.337 30.544 120.785 30.8V95.024C120.785 97.264 119.985 98.384 118.385 98.384C118.001 98.384 117.585 98.256 117.137 98V65.36H78.3526V95.024C78.3526 97.264 77.5526 98.384 75.9526 98.384C75.5686 98.384 75.1526 98.256 74.7046 98V33.776C74.7046 31.536 75.5046 30.416 77.1046 30.416C77.4886 30.416 77.9046 30.544 78.3526 30.8V62.288H117.137V33.776C117.137 31.536 117.937 30.416 119.537 30.416ZM170.459 81.488C173.019 87.056 174.939 90.928 176.219 93.104C177.563 95.28 178.779 96.688 179.867 97.328V97.904C179.099 98.224 178.299 98.384 177.467 98.384C176.571 98.384 175.771 98.064 175.067 97.424C174.363 96.784 173.403 95.408 172.187 93.296C171.035 91.12 169.435 87.76 167.387 83.216C165.019 77.904 162.971 74.032 161.243 71.6C159.515 69.104 157.467 67.248 155.099 66.032C153.563 66.16 152.411 66.224 151.643 66.224H140.987V95.024C140.987 97.264 140.187 98.384 138.587 98.384C138.203 98.384 137.787 98.256 137.339 98V48.656C137.339 44.368 137.147 40.944 136.763 38.384C136.443 35.824 135.803 33.584 134.843 31.664L135.419 30.416C137.979 30.416 140.603 30.32 143.291 30.128C144.123 30.064 145.371 30 147.035 29.936C148.763 29.872 150.299 29.84 151.643 29.84C158.811 29.84 164.507 31.472 168.731 34.736C173.019 37.936 175.163 42.288 175.163 47.792C175.163 52.272 173.787 56.048 171.035 59.12C168.283 62.192 164.475 64.272 159.611 65.36C161.467 66.448 163.163 68.176 164.699 70.544C166.299 72.912 168.219 76.56 170.459 81.488ZM139.163 33.488C140.379 36.688 140.987 41.744 140.987 48.656V63.248H153.179C158.747 63.248 163.163 61.872 166.427 59.12C169.755 56.304 171.419 52.528 171.419 47.792C171.419 43.248 169.755 39.632 166.427 36.944C163.163 34.256 158.747 32.912 153.179 32.912C151.515 32.912 149.947 32.944 148.475 33.008C147.003 33.072 145.723 33.136 144.635 33.2C142.587 33.392 140.763 33.488 139.163 33.488ZM192.216 98.384C191.832 98.384 191.416 98.256 190.968 98V33.776C190.968 31.536 191.768 30.416 193.368 30.416C193.752 30.416 194.168 30.544 194.616 30.8V95.024C194.616 97.264 193.816 98.384 192.216 98.384ZM229.346 98.96C225.122 98.96 221.346 98.416 218.018 97.328C214.69 96.176 212.066 94.896 210.146 93.488C208.226 92.016 207.266 90.896 207.266 90.128C207.266 88.976 207.906 88.4 209.186 88.4C213.922 93.456 220.418 95.984 228.674 95.984C234.626 95.984 239.138 94.704 242.21 92.144C245.282 89.584 246.818 85.936 246.818 81.2C246.818 78.384 246.21 75.952 244.994 73.904C243.778 71.856 241.794 70 239.042 68.336C236.29 66.608 232.546 64.944 227.81 63.344C221.154 61.04 216.45 58.512 213.698 55.76C210.946 53.008 209.57 49.52 209.57 45.296C209.57 40.304 211.17 36.496 214.37 33.872C217.57 31.184 222.114 29.84 228.002 29.84C231.842 29.84 235.362 30.416 238.562 31.568C241.762 32.656 244.29 33.936 246.146 35.408C248.002 36.816 248.93 37.904 248.93 38.672C248.93 39.824 248.29 40.4 247.01 40.4C244.706 37.968 241.986 36.112 238.85 34.832C235.714 33.488 232.258 32.816 228.482 32.816C223.618 32.816 219.842 33.904 217.154 36.08C214.53 38.256 213.218 41.264 213.218 45.104C213.218 48.496 214.498 51.344 217.058 53.648C219.618 55.888 224.034 58.128 230.306 60.368C235.298 62.16 239.234 64.016 242.114 65.936C245.058 67.856 247.17 70 248.45 72.368C249.794 74.672 250.466 77.456 250.466 80.72C250.466 86.544 248.642 91.056 244.994 94.256C241.346 97.392 236.13 98.96 229.346 98.96ZM300.303 30.8C300.495 31.184 300.591 31.568 300.591 31.952C300.591 32.592 300.335 33.072 299.823 33.392C299.375 33.712 298.703 33.872 297.807 33.872H280.719V95.024C280.719 97.264 279.919 98.384 278.319 98.384C277.935 98.384 277.519 98.256 277.071 98V33.872H257.487C257.295 33.488 257.199 33.104 257.199 32.72C257.199 32.08 257.423 31.6 257.871 31.28C258.383 30.96 259.087 30.8 259.983 30.8H300.303ZM312.966 98.384C312.582 98.384 312.166 98.256 311.718 98V33.776C311.718 31.536 312.518 30.416 314.118 30.416C314.502 30.416 314.918 30.544 315.366 30.8V95.024C315.366 97.264 314.566 98.384 312.966 98.384ZM328.592 98.576C328.016 98.576 327.44 98.384 326.864 98L349.424 33.584C349.872 32.368 350.352 31.504 350.864 30.992C351.376 30.48 352.016 30.224 352.784 30.224C353.296 30.224 353.776 30.32 354.224 30.512L376.784 95.024C376.976 95.6 377.072 96.112 377.072 96.56C377.072 97.904 376.176 98.576 374.384 98.576L366.512 76.208H338.192L331.28 95.792C330.64 97.648 329.744 98.576 328.592 98.576ZM365.456 73.136L352.304 35.696L339.248 73.136H365.456ZM389.265 98.384C388.881 98.384 388.465 98.256 388.017 98V34.256C388.017 31.696 389.073 30.416 391.185 30.416C391.761 30.416 392.305 30.544 392.817 30.8L429.681 92.912V33.776C429.681 31.536 430.481 30.416 432.081 30.416C432.465 30.416 432.881 30.544 433.329 30.8V94.544C433.329 97.104 432.273 98.384 430.161 98.384C429.585 98.384 429.041 98.256 428.529 98L391.665 35.888V95.024C391.665 97.264 390.865 98.384 389.265 98.384Z" fill="white"/>
<path d="M490.744 78.3953C493.72 77.2433 495.656 76.4593 496.552 76.0433C497.416 75.5953 498.04 75.1153 498.424 74.6033L498.856 74.6033C499.144 75.3713 499.288 76.1713 499.288 77.0033C499.288 77.8673 499.08 78.5713 498.664 79.1153C498.216 79.6273 497.528 80.1073 496.6 80.5553C495.672 81.0033 494.152 81.6273 492.04 82.4273C489.704 83.3233 488.024 84.0913 487 84.7313C485.944 85.3393 485.128 86.1873 484.552 87.2753C484.584 87.5313 484.6 87.8993 484.6 88.3793L484.6 92.9393L496.168 92.9393C497.128 92.9393 497.896 93.1953 498.472 93.7073C499.016 94.1873 499.288 94.8753 499.288 95.7713C499.288 96.2193 499.224 96.6833 499.096 97.1633L474.328 97.1633C472.152 97.1633 470.504 97.2433 469.384 97.4033C468.232 97.5313 467.176 97.8033 466.216 98.2193L465.208 97.8353C464.888 94.7633 464.728 91.9313 464.728 89.3393C464.728 86.7153 465.144 84.4593 465.976 82.5713C466.808 80.6513 467.976 79.1793 469.48 78.1553C470.984 77.1313 472.728 76.6193 474.712 76.6193C476.824 76.6193 478.68 77.1953 480.28 78.3473C481.848 79.4673 483 81.0513 483.736 83.0993C484.216 82.1393 484.968 81.3233 485.992 80.6513C487.016 79.9793 488.6 79.2273 490.744 78.3953ZM468.52 93.7073C469.288 93.3873 470.136 93.1793 471.064 93.0833C471.96 92.9873 473.048 92.9393 474.328 92.9393L481.144 92.9393L481.144 88.4753C481.144 86.1073 480.584 84.2673 479.464 82.9553C478.344 81.6113 476.744 80.9393 474.664 80.9393C472.648 80.9393 471.08 81.5953 469.96 82.9073C468.84 84.2193 468.28 86.1873 468.28 88.8113C468.28 90.2193 468.36 91.8513 468.52 93.7073ZM499.576 60.6271C499.576 62.8351 499.064 64.7871 498.04 66.4831C497.016 68.1791 495.544 69.4911 493.624 70.4191C491.704 71.3471 489.464 71.8111 486.904 71.8111C484.312 71.8111 482.04 71.3471 480.088 70.4191C478.136 69.4591 476.632 68.1471 475.576 66.4831C474.488 64.7871 473.944 62.8351 473.944 60.6271C473.944 57.4911 475.016 55.0431 477.16 53.2831C479.272 51.4911 482.152 50.5951 485.8 50.5951C486.696 50.5951 487.304 50.7231 487.624 50.9791C487.944 51.2031 488.104 51.6831 488.104 52.4191L488.104 67.8751C490.632 67.8751 492.648 67.2351 494.152 65.9551C495.656 64.6431 496.408 62.8991 496.408 60.7231C496.408 59.1231 496.056 57.6831 495.352 56.4031C494.648 55.0911 493.72 54.0511 492.568 53.2831C492.92 52.3231 493.64 51.8431 494.728 51.8431C495.592 51.8431 496.392 52.2751 497.128 53.1391C497.864 54.0031 498.456 55.1231 498.904 56.4991C499.352 57.8431 499.576 59.2191 499.576 60.6271ZM484.888 54.5311C482.296 54.5951 480.344 55.1071 479.032 56.0671C477.688 57.0271 477.016 58.4831 477.016 60.4351C477.016 62.4831 477.72 64.1311 479.128 65.3791C480.536 66.6271 482.584 67.4271 485.272 67.7791L484.888 54.5311ZM508.888 45.6166C508.888 46.6726 508.696 47.5366 508.312 48.2086C507.928 48.8806 507.384 49.2166 506.68 49.2166C505.944 49.2166 505.448 48.8486 505.192 48.1126C505.544 47.3446 505.72 46.5926 505.72 45.8566C505.72 45.1206 505.448 44.4966 504.904 43.9846C504.392 43.4726 503.48 42.9446 502.168 42.4006L496.792 40.2406L476.344 48.6406C476.088 48.7686 475.8 48.8326 475.48 48.8326C475.064 48.8326 474.744 48.6726 474.52 48.3526C474.264 48.0326 474.136 47.5366 474.136 46.8646C474.136 46.2566 474.296 45.7446 474.616 45.3286L491.992 38.3206L476.44 32.0326C475.64 31.7126 475.064 31.3446 474.712 30.9286C474.328 30.4806 474.136 29.9206 474.136 29.2486C474.136 28.5126 474.392 27.9206 474.904 27.4726L503.32 38.7046C505.08 39.3766 506.44 40.3046 507.4 41.4886C508.392 42.6726 508.888 44.0486 508.888 45.6166Z" fill="white"/>
<line x1="453" y1="-1.31134e-07" x2="453" y2="128" stroke="white" stroke-width="6"/>
</svg>
